# xmcd
#
# Track frame offsets:
#	150
#	22838
#	39084
#	55480
#	74711
#	91378
#	107627
#	123759
#	144142
#	157883
#	169173
#	181312
#	191325
#	227179
#	244362
#	260980
#	274326
#	296037
#	314592
#
# Disc length: 4362 seconds
# Revision: 1
# Processed by: cddbd v1.5.2PL0 Copyright (c) Steve Scherf et al.
# Submitted via: dBpowerAMP V12.0
#
DISCID=15110813
DTITLE=Various Artist - Cosmic Country
DYEAR=1974
DGENRE=Country Alternative
TTITLE0=Gram Parsons - $1000 Wedding 
TTITLE1=Emmylou Harris  - Boulder To Birmingham 
TTITLE2=John David Souther  - Jesus In 3/4 Time 
TTITLE3=John Prine - Sam Stone
TTITLE4=Townes Van Zandt - Poncho and Lefty
TTITLE5=Linda Ronstadt  - Desperado 
TTITLE6=Warren Zevon  - Carmelita 
TTITLE7=Guy Clark - Desperados Waiting For A Train
TTITLE8=Willie Nelson  - Pretend I Never Happened
TTITLE9=Kris Kristofferson - Jesus Was A Capricorn 
TTITLE10=Doug Sahm - Wallflower
TTITLE11=Crazy Horse - Dance, Dance, Dance 
TTITLE12=New Riders Of The Purple Sage - Dirty Business
TTITLE13=Commander Cody And His Lost Planet Airmen  - Seeds And Stems
TTITLE14=Gene Clark - From A Silver Phial 
TTITLE15=Michael Nesmith And The First National Band  - Propinquity (I've Just Begun)
TTITLE16=Judee Sill  - Ridge Rider
TTITLE17=Leon Russell  - A Song For You
TTITLE18=Lowell George   - 20 Million Things
EXTD=
EXTT0=
EXTT1=
EXTT2=
EXTT3=
EXTT4=
EXTT5=
EXTT6=
EXTT7=
EXTT8=
EXTT9=
EXTT10=
EXTT11=
EXTT12=
EXTT13=
EXTT14=
EXTT15=
EXTT16=
EXTT17=
EXTT18=
PLAYORDER=
